<svg
  width="20"
  height="20"
  viewBox="0 0 20 20"
  fill="none"
  xmlns="http://www.w3.org/2000/svg"
>
  <g id="loading">
    <g id="loading_2">
      <path id="Vector" opacity="0.25" d="M10 3.70967C9.45161 3.70967 9.03226 3.29032 9.03226 2.74193V0.967739C9.03226 0.419352 9.45161 -2.68988e-06 10 -2.68988e-06C10.5484 -2.68988e-06 10.9677 0.419352 10.9677 0.967739V2.74193C10.9677 3.25806 10.5484 3.70967 10 3.70967Z" fill="#B9FFB9" fill-opacity="0.4"/>
      <path id="Vector_2" d="M10 20C9.45161 20 9.03226 19.5806 9.03226 19.0323V17.2581C9.03226 16.7097 9.45161 16.2903 10 16.2903C10.5484 16.2903 10.9677 16.7097 10.9677 17.2581V19.0323C10.9677 19.5806 10.5484 20 10 20Z" fill="#2EFF2E"/>
      <path id="Vector_3" d="M6.35484 4.67742C6.03226 4.67742 5.70968 4.51613 5.51613 4.19355L4.64516 2.67742C4.3871 2.22581 4.54839 1.6129 5 1.35484C5.45161 1.09677 6.06452 1.25806 6.32258 1.70968L7.19355 3.22581C7.45161 3.67742 7.29032 4.29032 6.83871 4.54839C6.70968 4.6129 6.51613 4.67742 6.35484 4.67742Z" fill="#D1FFD1" fill-opacity="0.1"/>
      <path id="Vector_4" d="M14.5161 18.7742C14.1935 18.7742 13.871 18.6129 13.6774 18.2903L12.8065 16.7742C12.5484 16.3226 12.7097 15.7097 13.1613 15.4516C13.6129 15.1935 14.2258 15.3548 14.4839 15.8065L15.3548 17.3226C15.6129 17.7742 15.4516 18.3871 15 18.6452C14.8387 18.7419 14.6774 18.7742 14.5161 18.7742Z" fill="#46FF46"/>
      <path id="Vector_5" d="M3.70968 7.32258C3.54839 7.32258 3.3871 7.29032 3.22581 7.19355L1.70968 6.32258C1.25806 6.06452 1.09677 5.45161 1.35484 5C1.6129 4.54839 2.22581 4.3871 2.67742 4.64516L4.19355 5.51613C4.64516 5.77419 4.80645 6.3871 4.54839 6.83871C4.35484 7.16129 4.03226 7.32258 3.70968 7.32258Z" fill="#E8FFE8" fill-opacity="0.02"/>
      <path id="Vector_6" d="M17.8387 15.4839C17.6774 15.4839 17.5161 15.4516 17.3548 15.3548L15.8065 14.4839C15.3548 14.2258 15.1935 13.6129 15.4516 13.1613C15.7097 12.7097 16.3226 12.5484 16.7742 12.8065L18.2903 13.6774C18.7419 13.9355 18.9032 14.5484 18.6452 15C18.4839 15.3226 18.1613 15.4839 17.8387 15.4839Z" fill="#5DFF5D"/>
      <path id="Vector_7" d="M19.0323 10.9677H17.2581C16.7097 10.9677 16.2903 10.5484 16.2903 10C16.2903 9.45161 16.7097 9.03226 17.2581 9.03226H19.0323C19.5806 9.03226 20 9.45161 20 10C20 10.5484 19.5806 10.9677 19.0323 10.9677Z" fill="#74FF74"/>
      <path id="Vector_8" d="M2.16129 15.4839C1.83871 15.4839 1.51613 15.3226 1.32258 15C1.06452 14.5484 1.22581 13.9355 1.67742 13.6774L3.19355 12.8065C3.64516 12.5484 4.25806 12.7097 4.51613 13.1613C4.77419 13.6129 4.6129 14.2258 4.16129 14.4839L2.64516 15.3548C2.51613 15.4516 2.35484 15.4839 2.16129 15.4839Z" fill="#00FF00"/>
      <path id="Vector_9" d="M16.2903 7.32258C15.9677 7.32258 15.6452 7.16129 15.4516 6.83871C15.1935 6.3871 15.3548 5.77419 15.8065 5.51613L17.3226 4.64516C17.7742 4.3871 18.3871 4.54839 18.6452 5C18.9032 5.45161 18.7419 6.06452 18.2903 6.32258L16.7742 7.19355C16.6129 7.29032 16.4516 7.32258 16.2903 7.32258Z" fill="#8BFF8B" fill-opacity="0.8"/>
      <path id="Vector_10" d="M5.48387 18.7742C5.32258 18.7742 5.16129 18.7419 5 18.6452C4.54839 18.3871 4.3871 17.7742 4.64516 17.3226L5.51613 15.8065C5.77419 15.3548 6.3871 15.1935 6.83871 15.4516C7.29032 15.7097 7.45161 16.3226 7.19355 16.7742L6.32258 18.2903C6.12903 18.6129 5.80645 18.7742 5.48387 18.7742Z" fill="#17FF17"/>
      <path id="Vector_11" d="M13.6452 4.67742C13.4839 4.67742 13.3226 4.64516 13.1613 4.54839C12.7097 4.29032 12.5484 3.67742 12.8065 3.22581L13.6774 1.70968C13.9355 1.25806 14.5484 1.09677 15 1.35484C15.4516 1.6129 15.6129 2.22581 15.3548 2.67742L14.4839 4.19355C14.2903 4.48387 13.9677 4.67742 13.6452 4.67742Z" fill="#A2FFA2" fill-opacity="0.6"/>
    </g>
  </g>
</svg>
