<svg width="50" height="50" viewBox="0 0 50 50" fill="none" xmlns="http://www.w3.org/2000/svg">
<g id="sun">
<g id="sun_2">
<path id="Vector" d="M25.0031 37.5064C31.9073 37.5064 37.5043 31.9094 37.5043 25.0051C37.5043 18.1008 31.9073 12.5037 25.0031 12.5037C18.0989 12.5037 12.502 18.1008 12.502 25.0051C12.502 31.9094 18.0989 37.5064 25.0031 37.5064Z" fill="#E88B00"/>
<path id="Vector_2" fill-rule="evenodd" clip-rule="evenodd" d="M9.37607 24.9988C9.37607 23.2714 7.97837 21.8737 6.25098 21.8737H3.1251C1.3977 21.8737 0 23.2714 0 24.9988C0 26.7262 1.3977 28.124 3.1251 28.124H6.2502C7.97837 28.124 9.37607 26.7262 9.37607 24.9988Z" fill="#E8C300"/>
<path id="Vector_3" fill-rule="evenodd" clip-rule="evenodd" d="M9.53467 36.0478L7.3221 38.2612C6.10097 39.4815 6.10097 41.4597 7.3221 42.6801C8.54245 43.9005 10.5206 43.9005 11.7418 42.6801L13.9551 40.4675C15.1755 39.2471 15.1755 37.2681 13.9551 36.0478C12.7332 34.8266 10.7558 34.8266 9.53467 36.0478Z" fill="#E8C300"/>
<path id="Vector_4" fill-rule="evenodd" clip-rule="evenodd" d="M25.0031 40.6261C23.2757 40.6261 21.878 42.0238 21.878 43.7513V46.8772C21.878 48.6046 23.2757 50.0023 25.0031 50.0023C26.7305 50.0023 28.1282 48.6046 28.1282 46.8772L28.1251 43.7513C28.1282 42.0238 26.7274 40.6261 25.0031 40.6261Z" fill="#E8C300"/>
<path id="Vector_5" fill-rule="evenodd" clip-rule="evenodd" d="M40.4684 36.0509C39.2504 34.8274 37.2723 34.8274 36.0519 36.0478C34.8316 37.2681 34.8316 39.2471 36.0519 40.4675L38.2621 42.677C39.4825 43.9036 41.4607 43.8974 42.681 42.677C43.9014 41.4566 43.9045 39.4815 42.681 38.258L40.4684 36.0509Z" fill="#E8C300"/>
<path id="Vector_6" fill-rule="evenodd" clip-rule="evenodd" d="M46.8811 21.8737L43.749 21.8799C42.0279 21.8737 40.6302 23.2714 40.6302 24.9988C40.6239 26.7262 42.0279 28.124 43.749 28.124H46.8749C48.6085 28.1302 50 26.7262 50 24.9988C50.0031 23.2745 48.6085 21.8737 46.8811 21.8737Z" fill="#E8C300"/>
<path id="Vector_7" fill-rule="evenodd" clip-rule="evenodd" d="M40.4684 13.953L42.6779 11.7427C43.9076 10.5192 43.8982 8.54415 42.6779 7.323C41.4599 6.09872 39.4825 6.09872 38.2621 7.31987L36.0519 9.5356C34.8316 10.7505 34.8316 12.7279 36.0519 13.9491C37.266 15.1773 39.2504 15.171 40.4684 13.953Z" fill="#E8C300"/>
<path id="Vector_8" fill-rule="evenodd" clip-rule="evenodd" d="M25.0031 9.37153C26.7274 9.38403 28.1282 7.97381 28.1282 6.25263V3.12749C28.1282 1.39381 26.7305 0.00234375 25.0031 0.00234375C23.2757 -0.00390654 21.878 1.39381 21.878 3.12202L21.8843 6.25341C21.878 7.97381 23.2757 9.37153 25.0031 9.37153Z" fill="#E8C300"/>
<path id="Vector_9" fill-rule="evenodd" clip-rule="evenodd" d="M9.54092 13.9499C10.7558 15.1702 12.7277 15.1702 13.952 13.9467C15.1817 12.735 15.1755 10.7513 13.9582 9.53325L11.748 7.32378C10.5214 6.09638 8.54948 6.10575 7.32835 7.32378C6.09785 8.5418 6.09785 10.5192 7.31898 11.7404L9.54092 13.9499Z" fill="#E8C300"/>
</g>
</g>
</svg>
