<svg width="18" height="40" viewBox="0 0 18 40" fill="none" xmlns="http://www.w3.org/2000/svg">
<g id="thermometer">
<g id="inside">
<path id="Vector" d="M12.3175 4.29469C12.3175 2.4625 10.8323 0.977188 9 0.977188C7.16781 0.977188 5.6825 2.46242 5.6825 4.29469V14.5586H12.3174L12.3175 4.29469Z" fill="white"/>
<path id="Vector_2" d="M12.3175 27.9747V14.5584H5.68258V27.9746C4.05313 29.0524 2.97766 30.9003 2.97766 33.0004C2.97766 36.3265 5.67391 39.0228 9.00008 39.0228C12.3263 39.0228 15.0225 36.3266 15.0225 33.0004C15.0224 30.9005 13.947 29.0525 12.3175 27.9747Z" fill="#FD1D19"/>
</g>
<g id="outside">
<path id="Vector_3" d="M13.2947 27.4739C13.2947 26.6695 13.2947 5.09922 13.2947 4.29477C13.2947 1.92664 11.368 0 9 0C6.63195 0 4.70531 1.92664 4.70531 4.29469C4.70531 5.09977 4.70531 26.6697 4.70531 27.4738C3.00234 28.7967 2.00039 30.8252 2.00039 33.0003C2.00039 36.8599 5.14047 40 9 40C12.8595 40 15.9996 36.8599 15.9996 33.0004C15.9996 30.8253 14.9977 28.7969 13.2947 27.4739ZM6.65969 4.29469C6.65969 3.0043 7.70961 1.95438 9 1.95438C10.2904 1.95438 11.3403 3.0043 11.3403 4.29469V6.79062H9.32508C8.78523 6.79062 8.34789 7.22805 8.34789 7.76781C8.34789 8.30758 8.78531 8.745 9.32508 8.745H11.3403V9.75867H9.32508C8.78523 9.75867 8.34789 10.1961 8.34789 10.7359C8.34789 11.2756 8.78531 11.713 9.32508 11.713H11.3403V13.5812H6.65969V4.29469ZM9 38.0456C6.21797 38.0456 3.95477 35.7824 3.95477 33.0004C3.95477 31.3027 4.80219 29.7284 6.22148 28.7896C6.49508 28.6086 6.65953 28.3027 6.65953 27.9746V15.5356H11.3402V27.9746C11.3402 28.3027 11.5047 28.6086 11.7782 28.7896C13.1976 29.7285 14.0449 31.3027 14.0449 33.0004C14.0452 35.7824 11.782 38.0456 9 38.0456Z" fill="#464646"/>
</g>
</g>
</svg>
