<svg width="16" height="16" viewBox="0 0 16 16" fill="none" xmlns="http://www.w3.org/2000/svg">
<g id="weather_logo">
<g id="sun">
<path id="Vector" d="M9.60373 6.37446C9.46387 6.37446 9.35897 6.26996 9.35897 6.13062C9.35897 5.99129 9.46387 5.88679 9.60373 5.88679H12.0629C12.2028 5.88679 12.3077 5.99129 12.3077 6.13062C12.3077 6.26996 12.2028 6.37446 12.0629 6.37446H9.60373Z" fill="#FFE500"/>
<path id="Vector_2" d="M6.10762 9.12627C7.74925 9.12627 9.08005 7.79547 9.08005 6.15385C9.08005 4.51222 7.74925 3.18142 6.10762 3.18142C4.466 3.18142 3.1352 4.51222 3.1352 6.15385C3.1352 7.79547 4.466 9.12627 6.10762 9.12627Z" fill="#FFCF26"/>
<path id="Vector_3" d="M5.90909 0.243832C5.90909 0.104499 6.01399 0 6.15385 0C6.29371 0 6.3986 0.104499 6.3986 0.243832V2.69376C6.3986 2.83309 6.29371 2.93759 6.15385 2.93759C6.01399 2.93759 5.90909 2.83309 5.90909 2.69376V0.243832Z" fill="#FFE500"/>
<path id="Vector_4" d="M5.87413 9.61393C5.87413 9.4746 5.97902 9.3701 6.11888 9.3701C6.25874 9.3701 6.36364 9.4746 6.36364 9.61393V12.0639C6.36364 12.2032 6.25874 12.3077 6.11888 12.3077C5.97902 12.3077 5.87413 12.2032 5.87413 12.0639V9.61393Z" fill="#FFE500"/>
<path id="Vector_5" d="M1.80653 2.13643C1.71329 2.04354 1.71329 1.88099 1.80653 1.7881C1.89977 1.69521 2.06294 1.69521 2.15618 1.7881L3.89277 3.51814C3.98601 3.61103 3.98601 3.77358 3.89277 3.86647C3.79953 3.95936 3.63636 3.95936 3.54312 3.86647L1.80653 2.13643Z" fill="#FFE500"/>
<path id="Vector_6" d="M10.1632 1.79971C10.2564 1.70682 10.4196 1.70682 10.5128 1.79971C10.6061 1.8926 10.6061 2.05515 10.5128 2.14804L8.77622 3.87808C8.68298 3.97097 8.51981 3.97097 8.42657 3.87808C8.33333 3.7852 8.33333 3.62264 8.42657 3.52975L10.1632 1.79971Z" fill="#FFE500"/>
<path id="Vector_7" d="M8.77622 8.38316C8.68298 8.29028 8.51981 8.29028 8.42657 8.38316C8.33333 8.47605 8.33333 8.63861 8.42657 8.73149L10.1632 10.4615C10.2564 10.5544 10.4196 10.5544 10.5128 10.4615C10.6061 10.3686 10.6061 10.2061 10.5128 10.1132L8.77622 8.38316Z" fill="#FFE500"/>
<path id="Vector_8" d="M3.29837 8.30189C3.39161 8.209 3.55478 8.209 3.64802 8.30189C3.74126 8.39478 3.74126 8.55733 3.64802 8.65022L1.91142 10.3803C1.81818 10.4731 1.65501 10.4731 1.56177 10.3803C1.46853 10.2874 1.46853 10.1248 1.56177 10.0319L3.29837 8.30189Z" fill="#FFE500"/>
<path id="Vector_9" d="M0.244755 6.37446C0.104895 6.37446 0 6.26996 0 6.13062C0 5.99129 0.104895 5.88679 0.244755 5.88679H2.70396C2.84382 5.88679 2.94872 5.99129 2.94872 6.13062C2.94872 6.26996 2.84382 6.37446 2.70396 6.37446H0.244755Z" fill="#FFE600"/>
</g>
<g id="clouds">
<path id="Vector_10" d="M11.7208 6.37172C12.5369 6.7197 13.3052 7.98561 13.3052 7.98561C13.3052 7.98561 13.9249 8.0624 14.3219 8.11161C14.6289 8.20222 15.0791 8.51388 15.2701 8.76791C15.4349 9.18309 15.5456 9.62935 15.4011 10.1539C15.3187 10.4529 15.0393 10.8623 15.0393 10.8623C15.0393 10.8623 15.819 11.3879 15.925 11.8848C16.1155 12.7772 15.959 13.5531 15.2701 14.1287C14.5924 14.6952 13.4403 14.7621 12.7001 14.2779C11.9904 15.4226 11.7208 15.6157 10.3984 15.9257C9.12586 16.077 7.93445 15.8568 7.18591 15.6157C6.43738 15.3745 5.13369 14.5535 5.13369 14.5535C5.13369 14.5535 4.33012 14.9211 3.82867 14.955C3.16315 15.0001 2.76096 15.0371 2.12328 14.8561C1.45166 14.6655 1.02806 14.4967 0.587289 13.9928C0.173827 13.5202 0 13.0846 0 12.536C0 12.4011 0.0137032 12.2984 0.0451761 12.1493C0.193581 11.4463 0.598583 11.0073 1.17458 10.6386C1.73928 10.2699 2.4621 10.045 3.18491 10.045C3.23009 10.045 3.26397 10.045 3.30915 10.045C3.3995 9.67633 3.56891 9.32562 3.81738 9.01987C4.12232 8.65117 4.5289 8.3634 5.02584 8.20153C5.50019 8.04866 6.00842 8.02168 6.48277 8.11161C6.83288 8.17456 7.47664 8.48031 7.47664 8.48031C7.47664 8.48031 7.9156 7.61974 8.32743 7.16634C8.648 6.81341 8.82651 6.58189 9.25686 6.37172C9.72109 6.14498 10.0428 6.12013 10.5606 6.13148C11.0234 6.14163 11.2958 6.19048 11.7208 6.37172Z" fill="url(#paint0_linear_2_17)"/>
</g>
</g>
<defs>
<linearGradient id="paint0_linear_2_17" x1="8" y1="6.12924" x2="8" y2="15.9754" gradientUnits="userSpaceOnUse">
<stop stop-color="#70B9D8"/>
<stop offset="0.0001" stop-color="#33ABDE"/>
<stop offset="0.677083" stop-color="#58ABCE"/>
<stop offset="1" stop-color="#B4E3F7"/>
</linearGradient>
</defs>
</svg>
