<svg width="16" height="16" viewBox="0 0 16 16" fill="none" xmlns="http://www.w3.org/2000/svg"><path d="M9.604 6.374a.239.239 0 0 1-.245-.243c0-.14.105-.244.245-.244h2.459c.14 0 .245.104.245.244a.238.238 0 0 1-.245.243h-2.46Z" fill="#FFE500"/><path d="M6.108 9.126a2.972 2.972 0 1 0 0-5.945 2.972 2.972 0 0 0 0 5.945Z" fill="#FFCF26"/><path d="M5.91.244c0-.14.104-.244.244-.244s.245.104.245.244v2.45c0 .14-.105.244-.245.244a.239.239 0 0 1-.245-.244V.244Zm-.036 9.37c0-.14.105-.244.245-.244s.245.105.245.244v2.45c0 .14-.105.244-.245.244a.239.239 0 0 1-.245-.244v-2.45ZM1.807 2.136a.252.252 0 0 1 0-.348.254.254 0 0 1 .35 0l1.736 1.73a.252.252 0 0 1 0 .348.254.254 0 0 1-.35 0l-1.736-1.73Zm8.356-.336a.254.254 0 0 1 .35 0 .252.252 0 0 1 0 .348l-1.737 1.73a.254.254 0 0 1-.35 0 .252.252 0 0 1 0-.348l1.737-1.73ZM8.776 8.383a.254.254 0 0 0-.35 0 .252.252 0 0 0 0 .348l1.737 1.73a.254.254 0 0 0 .35 0 .252.252 0 0 0 0-.348l-1.737-1.73Zm-5.478-.081a.254.254 0 0 1 .35 0 .252.252 0 0 1 0 .348l-1.737 1.73a.254.254 0 0 1-.35 0 .252.252 0 0 1 0-.348l1.737-1.73Z" fill="#FFE500"/><path d="M.245 6.374A.239.239 0 0 1 0 6.131c0-.14.105-.244.245-.244h2.459c.14 0 .245.104.245.244a.238.238 0 0 1-.245.243H.244Z" fill="#FFE600"/><path d="M11.72 6.372c.817.348 1.585 1.614 1.585 1.614l1.017.126c.307.09.757.402.948.656.165.415.276.861.131 1.386-.082.299-.362.708-.362.708s.78.526.886 1.023c.19.892.034 1.668-.655 2.244-.678.566-1.83.633-2.57.149-.71 1.145-.98 1.338-2.302 1.648a7.86 7.86 0 0 1-3.212-.31c-.749-.242-2.052-1.063-2.052-1.063s-.804.368-1.305.402c-.666.045-1.068.082-1.706-.099-.671-.19-1.095-.36-1.536-.863C.174 13.52 0 13.085 0 12.536c0-.135.014-.238.045-.387.149-.703.554-1.142 1.13-1.51a3.75 3.75 0 0 1 2.01-.594h.124c.09-.369.26-.72.508-1.025a2.597 2.597 0 0 1 1.209-.818c.474-.153.982-.18 1.457-.09.35.063.994.368.994.368s.439-.86.85-1.314c.321-.353.5-.584.93-.794.464-.227.786-.252 1.304-.24.462.01.735.058 1.16.24Z" fill="url(#a)"/><defs><linearGradient id="a" x1="8" y1="6.129" x2="8" y2="15.975" gradientUnits="userSpaceOnUse"><stop stop-color="#70B9D8"/><stop offset="0" stop-color="#33ABDE"/><stop offset=".677" stop-color="#58ABCE"/><stop offset="1" stop-color="#B4E3F7"/></linearGradient></defs></svg>