<svg width="24" height="24" viewBox="0 0 24 24" fill="none" xmlns="http://www.w3.org/2000/svg">
<g id="calendar">
<g id="calendar_frame">
<g id="weekdays">
<mask id="mask0_2_2" style="mask-type:alpha" maskUnits="userSpaceOnUse" x="3" y="4" width="18" height="18">
<rect id="Rectangle_1" x="3" y="4" width="18" height="18" fill="white"/>
</mask>
<g mask="url(#mask0_2_2)">
<g id="number_1">
<path id="Vector 12" d="M11 13.7143L13 12V18" stroke="black" stroke-linecap="round" stroke-linejoin="round"/>
</g>
<g id="number_2">
<path id="Vector 11" d="M10 13L10.4142 12.5858C10.7893 12.2107 11.298 12 11.8284 12H12.4129C12.7918 12 13.1581 12.1355 13.4458 12.3821L13.5434 12.4658C13.8332 12.7142 14 13.0768 14 13.4585V13.4585C14 13.8052 13.8623 14.1377 13.6171 14.3829L10 18H14" stroke="black" stroke-linecap="round" stroke-linejoin="round"/>
</g>
<g id="number_3">
<path id="Vector 10" d="M10 12.5L10.5777 12.2111C10.8554 12.0723 11.1616 12 11.4721 12H12.2929C12.7456 12 13.1799 12.1799 13.5 12.5L13.6464 12.6464C13.8728 12.8728 14 13.1799 14 13.5V13.5C14 13.8201 13.8728 14.1272 13.6464 14.3536L13 15M13 15H10.5M13 15L13.6464 15.6464C13.8728 15.8728 14 16.1799 14 16.5V16.5C14 16.8201 13.8728 17.1272 13.6464 17.3536L13.5 17.5C13.1799 17.8201 12.7456 18 12.2929 18H11.4721C11.1616 18 10.8554 17.9277 10.5777 17.7889L10 17.5" stroke="black" stroke-linecap="round" stroke-linejoin="round"/>
</g>
<g id="number_4">
<path id="Vector 8" d="M13 12L10 16H14" stroke="black" stroke-linecap="round" stroke-linejoin="round"/>
<path id="Vector 9" d="M13 12V18" stroke="black" stroke-linecap="round" stroke-linejoin="round"/>
</g>
<g id="number_5">
<path id="Vector 6" d="M14 12H10V14.5714H12.4129C12.7918 14.5714 13.1581 14.707 13.4458 14.9535V14.9535C13.7975 15.255 14 15.6952 14 16.1585V16.4129C14 16.8762 13.7975 17.3164 13.4458 17.6179V17.6179C13.1581 17.8645 12.7918 18 12.4129 18H10" stroke="black" stroke-linecap="round" stroke-linejoin="round"/>
</g>
<g id="number_6">
<path id="Vector 5" d="M14 12L13.2599 12.2538C12.1246 12.643 11.1673 13.4275 10.5626 14.4641L10.5 14.5714M10.5 14.5714L10.3198 14.8804C10.1103 15.2394 10 15.6476 10 16.0632V16.4129C10 16.8762 10.2025 17.3164 10.5542 17.6179V17.6179C10.8419 17.8645 11.2082 18 11.5871 18H12.4129C12.7918 18 13.1581 17.8645 13.4458 17.6179V17.6179C13.7975 17.3164 14 16.8762 14 16.4129V16.2857V16.1585C14 15.6952 13.7975 15.255 13.4458 14.9535V14.9535C13.1581 14.707 12.7918 14.5714 12.4129 14.5714H12H10.5Z" stroke="black" stroke-linecap="round" stroke-linejoin="round"/>
</g>
<g id="number_7">
<path id="Vector 4" d="M10 12H14L11 18" stroke="black" stroke-linecap="round" stroke-linejoin="round"/>
</g>
</g>
</g>
<g id="rec_1">
<path id="Vector 1" d="M18 22H6C4.34315 22 3 20.6569 3 19V7C3 5.34315 4.34315 4 6 4H18C19.6569 4 21 5.34315 21 7V19C21 20.6569 19.6569 22 18 22Z" stroke="black" stroke-linecap="round" stroke-linejoin="round"/>
</g>
</g>
<g id="line_3">
<path id="Vector 2" d="M3 8H21" stroke="black" stroke-linecap="round" stroke-linejoin="round"/>
</g>
<g id="line_2">
<path id="Vector 13" d="M7 4V2" stroke="black" stroke-linecap="round" stroke-linejoin="round"/>
</g>
<g id="line_1">
<path id="Vector 14" d="M17 4V2" stroke="black" stroke-linecap="round" stroke-linejoin="round"/>
</g>
</g>
</svg>
