<svg xmlns="http://www.w3.org/2000/svg" width="24" height="24" fill="none" viewBox="0 0 24 24"><path fill="currentColor" fill-rule="evenodd" d="m14.873 16.032 4.87-4.468.19.19a.8.8 0 0 0 1.13-1.131l-.14-.142L13.85 3.41l-.141-.141a.8.8 0 0 0-1.132 1.13l.196.196-4.446 4.892-3.551 1.188a1 1 0 0 0-.39 1.656l3.1 3.1-3.677 3.677a.8.8 0 0 0 1.131 1.131l3.677-3.677 3.392 3.391a1 1 0 0 0 1.653-.383l1.21-3.538Zm-.967-10.304 4.703 4.703-5.118 4.697-1.03 3.013-6.258-6.257 3.029-1.012 4.674-5.144Z" clip-rule="evenodd"></path></svg>