<svg xmlns="http://www.w3.org/2000/svg" width="24" height="24" fill="none" viewBox="0 0 24 24"><path fill="currentColor" fill-rule="evenodd" d="M21.064 10.623a.8.8 0 1 1-1.132 1.13l-.19-.19-2.133 1.958-1.133-1.133 2.133-1.957-4.703-4.703L11.96 7.87l-1.133-1.133 1.948-2.143-.196-.195a.8.8 0 1 1 1.132-1.131l7.354 7.354Zm-4.93 4.251-1.261 1.158-1.21 3.538a1 1 0 0 1-1.653.383l-3.392-3.39-3.676 3.676a.8.8 0 0 1-1.132-1.131l3.677-3.677-3.1-3.1a1 1 0 0 1 .39-1.656l3.551-1.188L9.48 8.22l1.132 1.132-1.38 1.52-3.03 1.012 6.258 6.257 1.03-3.013 1.512-1.386 1.132 1.132Z" clip-rule="evenodd"></path><path stroke="currentColor" stroke-linecap="round" stroke-width="1.6" d="M3.13 3 21 20.87"></path></svg>